<svg width="310" height="202" viewBox="0 0 310 202" fill="none" xmlns="http://www.w3.org/2000/svg">
<path d="M205.49 37.7106L205.262 38.1056C198.724 38.9656 194.535 40.8663 192.695 43.8079C195.997 47.8222 201.581 59.4961 203.295 60.9824C204.764 69.6285 203.675 72.1484 199.695 86.418C190.241 86.3665 182.418 88.6616 176.224 93.3032L173.547 97.0257L171.241 101.384C169.782 97.0987 170.307 92.906 172.816 88.8055L173.99 86.9549L178.971 84.3523C182.308 82.3457 185.185 79.3712 187.602 75.4288C188.325 72.4744 187.95 68.0776 186.475 62.2383C184.458 56.3663 182.112 52.0962 179.439 49.4278C169.116 47.9613 160.827 48.9339 154.571 52.3454C155.483 57.5784 154.821 62.0081 152.586 65.6345L150.469 68.2051C150.615 70.7485 151.216 72.9923 152.271 74.9363C155.889 74.1458 160.082 74.4256 164.852 75.7757C169.385 76.076 174.246 74.1066 179.434 69.8677C179.647 69.499 179.885 69.3907 180.149 69.5428L180.307 69.6341C179.588 71.6076 178.777 73.3166 177.872 74.7611C175.302 78.9669 170.327 82.837 162.947 86.3716C157.694 89.8708 153.03 94.9044 148.956 101.472L147.005 104.666L143.765 110.276L143.37 110.048C143.76 100.86 145.677 93.4668 149.121 87.8692L150.706 85.3074C150.88 85.1271 150.585 84.6051 149.819 83.7414C148.344 82.8895 145.689 83.5336 141.854 85.6737L141.762 85.8317L141.446 85.6491L139.477 78.2948L139.249 78.6898C135.805 84.2874 133.517 90.3771 132.385 96.9587C131.816 99.1593 130.943 101.219 129.764 103.137L129.08 104.323C130.664 112.403 133.169 117.432 136.592 119.41L137.225 119.775C144.829 115.246 151.561 113.198 157.421 113.633C157.421 113.633 157.63 114.009 158.399 114.726C159.169 115.443 160.183 115.966 160.183 115.966C162.526 117.008 170.622 121.715 183.216 111.12L178.966 125.439C177.684 132.025 178.044 131.233 177.756 133.97L171.331 134.872C171.331 134.872 170.59 135.013 169.617 135.049C168.645 135.085 168.645 135.085 167.493 135.517C166.34 135.949 153.528 147.738 141.74 146.619L141.345 146.391C147.908 145.124 152.428 142.466 154.907 138.419C156.595 133.914 155.691 130.405 155.691 130.405C155.691 130.405 155.405 128.204 152.693 127.656C144.356 130.779 138.857 134.522 136.196 138.886C130.89 144.181 125.469 148.215 119.933 150.989C112.522 154.576 105.145 156.462 97.8031 156.646L97.645 156.555L97.7363 156.397C106.175 152.49 112.356 147.384 116.278 141.08C123.523 129.388 121.649 117.734 110.657 106.116C110.078 105.781 109.605 105.262 109.239 104.559C112.265 102.724 114.398 100.795 115.637 98.7709C117.61 93.1665 121.166 85.4907 126.304 75.7436C127.575 71.8411 127.517 68.0494 126.13 64.3684L125.175 60.5499L125.266 60.3919C130.323 63.3127 134.613 64.0344 138.136 62.5568L139.954 60.8676C141.582 56.4688 141.026 53.4783 138.287 51.8962C135.653 50.3749 130.939 50.1455 124.143 51.2079L123.985 51.1166L124.076 50.9586C130.491 45.8124 140.101 41.4583 152.907 37.8961C168.88 34.6883 184.09 34.2006 198.536 36.4333L205.49 37.7106Z" fill="white"/>
<path d="M309.431 35.389C300.405 37.165 295.388 39.1605 294.38 41.3755C293.871 46.0221 292.887 49.9513 291.426 53.1631C286.793 63.3521 277.511 71.8615 263.58 78.6914L264.328 79.0313C268.758 81.0456 272.173 83.9685 274.574 87.7999L274.824 87.9132C276.651 88.7442 279.735 87.8409 284.075 85.2034C288.812 81.544 292 77.9147 293.636 74.3153L293.968 74.4664C294.119 77.8092 293.678 80.6158 292.646 82.8862L291.928 84.4644C290.921 86.6794 287.293 91.2778 281.045 98.2597L280.138 100.253C279.005 102.745 278.516 107.2 278.672 113.619C278.228 115.623 277.679 117.345 277.025 118.784L275.665 121.775C273.928 125.595 270.695 130.207 265.967 135.608L265.552 135.419L266.42 133.509C268.354 128.374 268.297 125.34 266.248 124.409L265.417 124.031C262.095 122.52 257.986 124.06 253.092 128.651L251.778 130.66L249.527 136.051C243.686 148.898 230.2 158.203 209.07 163.964L204.607 164.741L204.682 164.575C220.552 155.687 230.375 147.089 234.152 138.783L234.53 137.952C237.022 132.47 236.22 127.695 232.122 123.627L229.072 121.738C223.091 119.019 214.497 120.725 203.29 126.855L202.792 126.628C206.342 118.821 215.367 111.832 229.867 105.661C234.786 103.955 238.624 102.861 241.383 102.378L241.549 102.453L241.474 102.619C237.587 104.995 235.102 107.374 234.02 109.755L234.284 110.276L238.852 112.353L247.294 116.492C249.611 113.603 252.722 111.61 256.629 110.513C260.294 110.241 262.653 110.345 263.705 110.823C264.677 106.922 264.446 102.139 263.012 96.4752C260.123 89.0139 255.938 84.0369 250.455 81.5442C244.42 78.7997 239.176 79.8235 234.725 84.6156L233.577 86.6997L232.784 88.444C231.726 90.7698 230.953 94.1603 230.464 98.6157L230.298 98.5402C225.169 90.8621 223.864 84.2543 226.381 78.7168C228.975 73.0132 234.224 69.9202 242.128 69.438C253.123 67.8888 259.29 66.8172 260.629 66.2234C268.624 62.3076 274.51 56.1967 278.287 47.8904L279.534 45.1494C266.857 43.9294 254.497 47.2304 242.454 55.0523C236.981 58.7116 231.322 63.5891 225.476 69.685C221.951 83.3177 220.034 91.5008 219.726 94.2344C219.721 97.0386 220.564 100.329 222.255 104.105C214.97 105.871 209.711 108.324 206.479 111.465C200.88 115.402 195.221 121.382 189.501 129.406L187.295 132.713L186.797 132.486C188.177 124.16 189.837 117.864 191.776 113.601L193.06 110.776C194.848 106.845 198.949 101.426 205.363 94.5195C206.088 93.5128 206.854 92.1234 207.66 90.3514L208.188 89.1885C211.26 82.4328 212.978 71.8205 213.343 57.3518C220.758 58.3848 225.41 56.8247 227.298 52.6716C228.155 50.7888 227.327 49.0091 224.815 47.3323L224.067 46.9924C220.689 45.4565 215.136 47.6759 207.408 53.6508L207.241 53.5752L207.317 53.4091C211.597 46.2004 218.281 39.9511 227.369 34.6611C238.354 29.165 249.312 26.9639 260.242 28.0577L260.408 28.1332C253.138 30.3072 248.684 33.1938 247.048 36.7932L246.33 39.4739L246.579 39.5872C255.601 35.4702 263.538 33.2989 270.39 33.0732C281.904 31.5594 294.918 32.3313 309.431 35.389Z" fill="white"/>
<path d="M76.7089 43.98C77.9881 41.1432 82.0693 38.0714 88.9613 34.8081C80.4943 34.9299 69.9996 37.6972 57.3817 43.1969C53.1612 44.9895 47.1394 49.0446 39.2728 55.4493C29.5352 64.8388 22.3822 75.2725 17.918 86.5938C18.0689 86.6112 18.2226 86.6257 18.3792 86.6373C18.4082 86.5445 18.4372 86.4459 18.4663 86.3415C23.9572 79.2232 28.9783 75.9948 33.5817 76.5865C35.8529 76.8737 36.8449 78.5358 36.5578 81.5554C36.4475 81.9789 36.3344 82.4024 36.2184 82.8259C35.557 84.8534 33.7644 87.0115 30.8405 89.335C30.8289 89.3988 30.8144 89.4626 30.797 89.5264C36.114 91.6062 40.9958 93.7469 45.4251 95.9659C52.3171 99.0203 54.9277 103.885 53.1612 110.568C51.7776 115.728 47.6528 120.749 40.7695 125.692C40.7405 125.791 40.7115 125.886 40.6825 125.979C40.7521 125.985 40.8159 125.991 40.874 125.997C45.4164 125.431 49.8196 123.63 54.0314 120.61C59.8618 112.7 63.9517 108.888 66.397 109.132C67.3078 109.353 68.2157 109.57 69.1207 109.785C69.0627 110.005 69.0047 110.226 68.9467 110.446C67.9895 114.275 68.2505 118.287 69.7386 122.446C72.3927 127.137 74.4464 129.538 75.8474 129.66C65.7965 139.345 54.9364 143.818 43.5368 143.07C33.4163 130.704 29.3351 121.698 30.9275 116.189C32.024 113.347 33.1176 110.504 34.2082 107.661C34.2894 107.366 34.3706 107.073 34.4519 106.783C35.4961 103.006 34.652 98.9246 31.9283 94.5388C31.8413 94.5272 31.7484 94.5185 31.6498 94.5127C31.6092 95.0174 31.5686 95.5192 31.528 96.0181C31.2959 96.8767 31.061 97.7353 30.8231 98.5939C29.9181 101.883 28.169 105.199 25.5497 108.558C21.0159 114.345 14.9158 118.669 7.27546 121.602C7.22905 121.764 7.17974 121.93 7.12752 122.098C8.3052 122.382 9.48287 122.667 10.6605 122.951C14.0282 124.648 15.9253 126.884 16.343 129.686C11.5656 135.934 8.45893 141.112 7.04921 145.245C6.74753 146.133 6.44006 147.024 6.12679 147.917C3.86427 154.435 4.99553 160.213 9.64241 165.243C9.70622 165.248 9.77004 165.251 9.83385 165.251C9.86866 165.159 9.90347 165.066 9.93828 164.973C9.87736 160.665 10.2864 157.219 11.1653 154.626C11.3335 154.151 11.4959 153.675 11.6526 153.199C12.1689 152.068 12.6852 150.934 13.2015 149.797C17.161 144.689 20.6244 142.226 23.6962 142.382C23.8528 142.388 24.0123 142.397 24.1748 142.409C27.6469 142.591 29.5613 148.892 29.9094 161.214C28.6302 169.62 27.9254 175.615 27.7861 179.201C28.256 188.895 32.7463 196.492 41.3004 201.991C41.4164 201.997 41.5237 202 41.6223 202C41.6571 201.907 41.689 201.817 41.7181 201.73C37.3061 194.307 36.4881 186.415 39.1858 178.078C39.4294 177.336 39.6673 176.593 39.8993 175.85C40.7695 173.127 42.1357 170.133 43.9893 166.887C51.2729 156.027 58.0343 150.806 64.4738 151.224C66.5275 151.363 68.1287 151.929 69.2774 152.886C71.5486 153.034 72.0968 155.34 70.8959 159.778C69.112 166.243 64.3172 172.544 56.5028 178.705C57.0684 178.74 60.6624 177.095 67.2759 173.805C76.6654 167.601 73.6545 160.248 85.7416 152.077C85.7416 152.077 92.3029 149.335 98.7685 140.894C105.077 132.497 106.983 121.045 97.3849 106.478C97.3211 106.756 97.2601 107.035 97.2021 107.313C94.7395 116.059 91.511 120.245 87.5951 119.879C87.2296 119.844 86.8641 119.809 86.4986 119.775C84.9149 119.635 83.4355 118.73 82.078 117.086C82.2695 116.274 82.4609 115.464 82.6524 114.658C83.218 112.239 85.0889 109.698 88.2391 107.044C88.2565 106.986 88.271 106.922 88.2826 106.852C88.1839 106.846 88.0853 106.838 87.9867 106.826C82.6437 105.19 77.7705 101.979 73.3934 97.2016C67.5108 89.9789 59.2787 84.5227 48.6884 80.8592C48.9378 80.2617 49.1873 79.6583 49.4367 79.0492C50.9248 73.1927 50.655 69.1028 48.6449 66.8141C48.845 66.031 50.2547 64.2993 52.874 61.6277C59.0003 57.1375 64.2911 55.2753 68.7552 55.9975C69.7821 56.1716 71.7661 56.7894 83.3746 64.1513C85.8982 65.6046 91.5197 72.0963 94.2347 85.1232C95.0614 90.4836 91.4588 96.5924 84.5668 99.3162C84.5436 99.4322 84.5146 99.554 84.4798 99.6817C84.5784 99.6933 84.677 99.702 84.7756 99.7078C91.0324 100.404 98.8903 98.211 103.998 94.1385C104.346 90.6055 109.455 83.1739 114.293 78.8925C119.123 74.6111 119.227 69.2594 120.01 63.3507C120.022 63.2579 120.036 63.168 120.054 63.081C119.92 63.0636 119.79 63.052 119.662 63.0462C115.363 68.5806 102.145 66.2224 98.2029 60.2789C90.7626 50.4978 86.7684 49.2448 76.7089 43.98Z" fill="white"/>
</svg>
