<svg width="587" height="332" viewBox="0 0 587 332" fill="none" xmlns="http://www.w3.org/2000/svg">
<path d="M114.399 239.917C85.0051 239.114 63.3587 233.058 48.3343 221.31C33.237 209.27 25.9234 176.53 26.7965 157.923C39.0575 165.124 55.4282 166.948 64.5231 177.894C68.161 181.542 78.1654 196.902 86.1688 202.229C94.2085 207.336 104.759 210.073 118.037 210.511C131.788 211.021 142.339 209.343 149.36 205.33C156.454 200.988 159.582 195.005 158.855 187.489C158.236 180.849 156.126 175.924 152.561 172.567C149.069 168.992 144.085 166.328 137.573 164.686C131.061 162.826 122.803 161.293 112.689 160.089C101.63 158.375 91.4437 156.404 82.1671 154.179C72.8177 151.662 64.7776 148.341 58.0476 144.292C51.2447 140.133 46.1515 134.879 42.9137 128.604C39.7852 122.438 39.3486 115.287 41.9315 107.333C46.0059 97.7378 52.8454 89.7843 61.1398 82.4509C68.5247 73.8407 75.9463 65.4858 83.9496 57.8241C91.8075 49.834 101.921 44.5438 115.09 43.0115C128.914 42.7561 141.175 46.1491 151.688 52.315C162.274 58.2619 201.651 65.4744 197.742 83.0646C192.856 91.8597 192.856 89.9052 189.924 98.7003C188.123 104.106 184.061 108.473 185.038 113.359C195.158 163.956 165.494 102.609 156.699 94.7914C146.926 87.9508 150.835 90.8825 144.972 86.9735C139.108 83.0646 137.427 81.7942 132.698 79.6781C127.969 77.5256 122.548 76.65 116.364 77.0148C106.832 77.8539 99.6655 80.8456 94.6088 85.771C89.5158 90.4775 86.6053 96.0231 85.9869 102.481C85.4776 107.552 86.4962 111.529 89.1519 114.557C91.8439 117.585 96.2823 119.92 102.321 121.599C108.433 122.985 116.291 124.335 125.859 125.466C135.244 126.414 144.23 127.801 152.779 129.625C161.656 131.413 169.55 134.04 176.535 137.688C183.52 141.227 189.195 146.481 193.67 153.449C198.399 160.272 204.584 168.869 204.584 181.943C204.584 203.529 193.67 218.122 190.505 230.942C171.697 239.114 144.921 241.559 114.399 239.917Z" fill="white"/>
<path d="M468.266 269.716C457.583 269.716 447.913 268.113 439.186 264.978C430.458 261.552 422.998 256.959 416.733 251.091C410.468 245.004 405.651 238.079 402.283 230.316C401.462 230.316 400.629 230.316 399.784 230.316C399.615 242.174 399.434 254.056 399.241 265.962C384.852 265.938 343.362 236.937 329.094 236.913C402.283 213.222 359.876 1.82241 321.851 1.82241C337.182 1.79811 357.293 0 374.941 0C383.802 35.7921 390.296 71.6449 394.425 107.558C395.246 107.558 396.066 107.558 396.887 107.558C400.509 95.8586 407.679 86.3092 418.652 78.9831C430.168 71.6206 444.618 67.9029 461.783 67.7571C474.965 67.6478 486.808 69.6524 496.911 73.8439C507.16 77.7074 514.982 83.6849 519.726 91.74C523.42 99.6128 523.058 109.563 519.328 121.955C515.924 134.712 512.52 150.932 510.781 170.614C513.353 196.127 519.219 215.081 523.819 228.603C527.259 241.651 523.891 251.602 513.28 258.672C501.04 265.889 485.468 269.68 468.266 269.716ZM448.493 232.758C458.053 232.867 466.202 230.644 472.611 226.197C478.695 221.532 482.57 214.716 484.417 205.604C486.083 196.2 486.011 184.136 484.997 169.52C484.924 158.367 484.381 148.745 483.077 140.726C482.063 132.562 479.963 125.783 476.595 120.425C473.046 115.103 468.411 111.276 462.689 108.944C457.076 106.319 450.557 105.044 443.278 105.116C432.558 105.189 423.686 107.814 416.66 112.953C409.816 118.128 404.746 124.689 401.45 132.744C398.336 140.799 396.996 149.437 397.394 158.732C397.66 165.56 397.925 172.388 398.191 179.216C398.517 188.182 400.581 196.747 404.42 204.802C408.476 212.821 414.162 219.527 421.513 224.922C428.973 230.061 437.954 232.685 448.493 232.758Z" fill="white"/>
<path d="M212.401 234.673C199.844 229.65 198.72 237.605 209.551 219.037C212.083 210.954 216.75 200.823 218.264 190.698C220.218 173.173 212.71 162.358 205.561 142.813C196.364 128.071 198.72 110.836 202.629 96.1572C208.187 75.2846 214.073 58.6813 225.975 46.7853C239.212 35.3272 255.623 29.1238 274.918 26.7884C294.647 24.8179 307.126 33.8515 326.386 52.0969C347.701 75.9983 349.072 104.076 351.633 126.955C354.194 149.835 346.331 175.05 346.439 190.632C345.069 205.082 337.711 217.197 323.537 227.341C292.051 192.602 265.107 159.031 237.192 126.955C235.461 137.1 235.461 146.879 236.399 156.44C236.903 166.256 237.408 175.634 238.202 184.538C238.49 193.478 239.789 201.36 242.746 208.001C246.894 215.372 252.412 219.204 258.977 219.751C265.973 220.262 272.826 217.963 279.066 213.146C287.325 222.087 295.945 230.881 304.998 239.675C294.936 244.456 284.115 247.411 272.934 249.345C262.223 252.192 252.052 253.724 242.494 253.104C233.081 252.046 217.287 236.628 212.401 234.673ZM243.143 104.185C242.71 101.594 242.241 98.8576 241.809 96.1572C267.813 119.73 290.463 146.624 312.969 175.561C310.985 175.707 309.074 175.926 307.126 176.108C313.293 167.971 316.684 159.213 317.549 149.835C318.74 140.202 318.163 130.203 315.71 119.913C313.402 109.695 309.434 100.135 303.447 91.4499C296.631 82.3273 289.056 76.8901 280.869 75.2846C272.935 74.1898 265.288 76.4158 258.363 81.415C251.908 86.4872 246.786 94.2597 243.143 104.185Z" fill="white"/>
<path d="M15 243.987C15 298.667 176.243 251.213 191.879 280.115C211.424 316.243 268.103 268.398 322.828 280.115C377.553 291.832 379.508 322.101 438.142 316.243C496.776 310.384 568.114 289.879 573 280.115" stroke="white" stroke-width="30"/>
</svg>
